<svg xmlns="http://www.w3.org/2000/svg" xmlns:xlink="http://www.w3.org/1999/xlink" viewBox="0 0 75.63 70.72"><defs><style>.cls-1{isolation:isolate;}.cls-2{fill:url(#Degradado_sin_nombre_19);}.cls-3{fill:url(#Degradado_sin_nombre_24);}.cls-4{fill:url(#Degradado_sin_nombre_19-2);}.cls-5{fill:url(#Degradado_sin_nombre_24-2);}.cls-6{fill:url(#Degradado_sin_nombre_24-3);}.cls-7{fill:url(#Degradado_sin_nombre_24-4);}.cls-52,.cls-8{opacity:0.5;}.cls-8{fill:url(#Degradado_sin_nombre_19-3);}.cls-9{fill:none;}.cls-10,.cls-13,.cls-14,.cls-15{opacity:0.8;}.cls-10{fill:url(#Degradado_sin_nombre_24-5);}.cls-11{fill:#a8d593;}.cls-12{fill:#daff00;}.cls-13{fill:url(#Degradado_sin_nombre_24-6);}.cls-14{fill:url(#Degradado_sin_nombre_24-7);}.cls-16{fill:url(#linear-gradient);}.cls-17{fill:url(#linear-gradient-2);}.cls-18{opacity:0.45;}.cls-19{fill:#929497;opacity:0;}.cls-19,.cls-20,.cls-21,.cls-22,.cls-23,.cls-24,.cls-25,.cls-26,.cls-27,.cls-28,.cls-29,.cls-30,.cls-31,.cls-32,.cls-33,.cls-34,.cls-35,.cls-36,.cls-37,.cls-38,.cls-39,.cls-40,.cls-41,.cls-42,.cls-43,.cls-44,.cls-45,.cls-46,.cls-47,.cls-48,.cls-49,.cls-50,.cls-51,.cls-52,.cls-53,.cls-54,.cls-55,.cls-56,.cls-57,.cls-58,.cls-59,.cls-60,.cls-61,.cls-62,.cls-63,.cls-64,.cls-65,.cls-66,.cls-67,.cls-68,.cls-69,.cls-70,.cls-71,.cls-72,.cls-73,.cls-74,.cls-75,.cls-76,.cls-77,.cls-78,.cls-79,.cls-80,.cls-81,.cls-82,.cls-83,.cls-84,.cls-85{mix-blend-mode:multiply;}.cls-20{fill:#919396;opacity:0.02;}.cls-21{fill:#909194;opacity:0.03;}.cls-22{fill:#8e9093;opacity:0.05;}.cls-23{fill:#8d8f92;opacity:0.06;}.cls-24{fill:#8c8e90;opacity:0.08;}.cls-25{fill:#8b8c8f;opacity:0.09;}.cls-26{fill:#898b8e;opacity:0.11;}.cls-27{fill:#888a8d;opacity:0.12;}.cls-28{fill:#87898b;opacity:0.14;}.cls-29{fill:#86878a;opacity:0.15;}.cls-30{fill:#848689;opacity:0.17;}.cls-31{fill:#838587;opacity:0.18;}.cls-32{fill:#828386;opacity:0.2;}.cls-33{fill:#818285;opacity:0.21;}.cls-34{fill:#7f8183;opacity:0.23;}.cls-35{fill:#7e8082;opacity:0.24;}.cls-36{fill:#7d7e81;opacity:0.26;}.cls-37{fill:#7c7d80;opacity:0.27;}.cls-38{fill:#7a7c7e;opacity:0.29;}.cls-39{fill:#797b7d;opacity:0.3;}.cls-40{fill:#78797c;opacity:0.32;}.cls-41{fill:#77787a;opacity:0.33;}.cls-42{fill:#757779;opacity:0.35;}.cls-43{fill:#747578;opacity:0.36;}.cls-44{fill:#737476;opacity:0.38;}.cls-45{fill:#727375;opacity:0.39;}.cls-46{fill:#707274;opacity:0.41;}.cls-47{fill:#6f7073;opacity:0.42;}.cls-48{fill:#6e6f71;opacity:0.44;}.cls-49{fill:#6d6e70;opacity:0.45;}.cls-50{fill:#6b6d6f;opacity:0.47;}.cls-51{fill:#6a6b6d;opacity:0.48;}.cls-52{fill:#696a6c;}.cls-53{fill:#68696b;opacity:0.52;}.cls-54{fill:#676769;opacity:0.53;}.cls-55{fill:#656668;opacity:0.55;}.cls-56{fill:#646567;opacity:0.56;}.cls-57{fill:#636465;opacity:0.58;}.cls-58{fill:#626264;opacity:0.59;}.cls-59{fill:#606163;opacity:0.61;}.cls-60{fill:#5f6062;opacity:0.62;}.cls-61{fill:#5e5f60;opacity:0.64;}.cls-62{fill:#5d5d5f;opacity:0.65;}.cls-63{fill:#5b5c5e;opacity:0.67;}.cls-64{fill:#5a5b5c;opacity:0.68;}.cls-65{fill:#59595b;opacity:0.7;}.cls-66{fill:#58585a;opacity:0.71;}.cls-67{fill:#565758;opacity:0.73;}.cls-68{fill:#555657;opacity:0.74;}.cls-69{fill:#545456;opacity:0.76;}.cls-70{fill:#535355;opacity:0.77;}.cls-71{fill:#515253;opacity:0.79;}.cls-72{fill:#505152;opacity:0.8;}.cls-73{fill:#4f4f51;opacity:0.82;}.cls-74{fill:#4e4e4f;opacity:0.83;}.cls-75{fill:#4c4d4e;opacity:0.85;}.cls-76{fill:#4b4b4d;opacity:0.86;}.cls-77{fill:#4a4a4b;opacity:0.88;}.cls-78{fill:#49494a;opacity:0.89;}.cls-79{fill:#474849;opacity:0.91;}.cls-80{fill:#464648;opacity:0.92;}.cls-81{fill:#454546;opacity:0.94;}.cls-82{fill:#444445;opacity:0.95;}.cls-83{fill:#424344;opacity:0.97;}.cls-84{fill:#414142;opacity:0.98;}.cls-85{fill:#404041;}</style><linearGradient id="Degradado_sin_nombre_19" x1="51.73" y1="208.06" x2="71.91" y2="265.29" gradientTransform="translate(-23.99 -201.8) rotate(2.47)" gradientUnits="userSpaceOnUse"><stop offset="0.12" stop-color="#78a435"/><stop offset="0.4" stop-color="#589336"/><stop offset="1" stop-color="#0a6937"/></linearGradient><linearGradient id="Degradado_sin_nombre_24" y1="35.98" x2="41.27" y2="35.98" gradientUnits="userSpaceOnUse"><stop offset="0" stop-color="#b8d844"/><stop offset="1" stop-color="#0a933c"/></linearGradient><linearGradient id="Degradado_sin_nombre_19-2" x1="38.04" y1="59.12" x2="53.88" y2="34.42" gradientTransform="matrix(1, 0, 0, 1, 0, 0)" xlink:href="#Degradado_sin_nombre_19"/><linearGradient id="Degradado_sin_nombre_24-2" x1="0" y1="35.98" x2="41.27" y2="35.98" xlink:href="#Degradado_sin_nombre_24"/><linearGradient id="Degradado_sin_nombre_24-3" x1="31.73" y1="22.47" x2="69.56" y2="22.47" xlink:href="#Degradado_sin_nombre_24"/><linearGradient id="Degradado_sin_nombre_24-4" x1="0" y1="35.3" x2="41.27" y2="35.3" xlink:href="#Degradado_sin_nombre_24"/><linearGradient id="Degradado_sin_nombre_19-3" x1="-2.78" y1="14.14" x2="51.48" y2="98.61" gradientTransform="matrix(1, 0, 0, 1, 0, 0)" xlink:href="#Degradado_sin_nombre_19"/><linearGradient id="Degradado_sin_nombre_24-5" x1="16.52" y1="35.36" x2="46.07" y2="66.23" xlink:href="#Degradado_sin_nombre_24"/><linearGradient id="Degradado_sin_nombre_24-6" x1="-41" y1="-521.2" x2="-30.62" y2="-521.2" gradientTransform="translate(144.53 534.8) rotate(-7.6)" xlink:href="#Degradado_sin_nombre_24"/><linearGradient id="Degradado_sin_nombre_24-7" x1="-30.62" y1="-523.23" x2="-20.23" y2="-523.23" gradientTransform="translate(144.53 534.8) rotate(-7.6)" xlink:href="#Degradado_sin_nombre_24"/><linearGradient id="linear-gradient" x1="51" y1="37.34" x2="45.46" y2="21.71" gradientUnits="userSpaceOnUse"><stop offset="0" stop-color="#05511c"/><stop offset="0.42" stop-color="#08870c"/><stop offset="0.99" stop-color="#afff00"/></linearGradient><linearGradient id="linear-gradient-2" x1="51.23" y1="37.32" x2="45.64" y2="21.56" xlink:href="#linear-gradient"/></defs><g class="cls-1"><g id="Layer_2" data-name="Layer 2"><g id="Layer_4" data-name="Layer 4"><path class="cls-2" d="M39.25,30.93C26.94,16.94,21.05,8.71,22,0c0,0-20.2,23.34-9,38.85C24.52,54.7,40.49,52.27,39.37,63.41,39.37,63.41,52.79,46.33,39.25,30.93Z"/><path class="cls-3" d="M30.38,33.1C14.73,22.65,6.82,16.16,5.39,7.52c0,0-4.14,21.78,11,32.93S39.76,52.63,38.89,63.08a9,9,0,0,1,.34,1.36S47.6,44.6,30.38,33.1Z"/><path class="cls-4" d="M62,27.55c-1.47-8.8-5-11.61-6.63-13.26,0,.08,2.18,2.63,1.71,9.3A16.85,16.85,0,0,1,55,29.78a58.59,58.59,0,0,1-4,6.5c-1.57,2.25-3.08,4.42-4.52,6.47s-2.82,4.28-4,6.35c-.56,1-1.09,2.06-1.53,3.06a31.2,31.2,0,0,0-1.14,2.92,20.75,20.75,0,0,0-1,5A13.58,13.58,0,0,0,39,63.29c.05.36.14.63.17.82l.07.27s.16-.36.47-1a20.74,20.74,0,0,1,1.52-2.58,28.53,28.53,0,0,1,2.86-3.48c1.18-1.26,2.6-2.61,4.22-4s3.43-3,5.35-4.69,4-3.58,6-5.73c.35-.37.29-.38.64-.77C61,38.39,62.82,32.39,62,27.55Z"/><path class="cls-5" d="M30.38,33.1C14.73,22.65,6.82,16.16,5.39,7.52c0,0-13.24,27.58,1.79,39.76C22.54,59.73,37.31,53.4,39.23,64.44,39.23,64.44,47.6,44.6,30.38,33.1Z"/><path class="cls-6" d="M69.33,19.19a23.53,23.53,0,0,0-1.52-5.46c-.17-.43-.4-.91-.6-1.35a5.37,5.37,0,0,0-.27-.54l-.26-.48-.06-.12-.07-.14,0,0,0-.08-.19-.33c-.13-.23-.27-.45-.41-.66-.28-.44-.57-.87-.9-1.29A16,16,0,0,0,54.32,2.58a17.87,17.87,0,0,0-5.44.11,21.21,21.21,0,0,0-8.29,3.4,22.34,22.34,0,0,0-5.09,4.8,20.63,20.63,0,0,0-2.6,4.43,17.25,17.25,0,0,0-1,3.05c-.08.36-.12.63-.15.82l0,.28.82-.77c.53-.49,1.32-1.19,2.34-2a28.68,28.68,0,0,1,3.81-2.47,23.79,23.79,0,0,1,5.13-2.06,16.59,16.59,0,0,1,5.79-.61c9.49.87,13.87,16.43,10.37,31a54.66,54.66,0,0,0,5.64-7.2A26.16,26.16,0,0,0,69.39,25,21.88,21.88,0,0,0,69.33,19.19Z"/><path class="cls-7" d="M16.34,40.45C1.25,29.3,5.39,7.52,5.39,7.52S-7.85,35.1,7.18,47.28C21.86,59.18,36,53.93,38.89,63.08,39.76,52.63,31.34,51.53,16.34,40.45Z"/><path class="cls-8" d="M15.8,44C.71,32.85,5.39,7.52,5.39,7.52S-7.85,35.1,7.18,47.28c14.68,11.9,30.45,6.66,32.05,17.16C38.44,53.61,30.8,55.08,15.8,44Z"/><path class="cls-9" d="M30.38,33.1C14.73,22.65,6.82,16.16,5.39,7.52c0,0-13.24,27.58,1.79,39.76C22.54,59.73,37.31,53.4,39.23,64.44,39.23,64.44,47.6,44.6,30.38,33.1Z"/><path class="cls-10" d="M39.37,63.41l0-.38c0-.24-.08-.6-.15-1.05s-.19-1-.34-1.6c-.07-.31-.16-.63-.26-1s-.21-.7-.34-1.06a21.16,21.16,0,0,0-1-2.27c-.19-.39-.43-.78-.65-1.18s-.49-.78-.78-1.16a15.16,15.16,0,0,0-1.94-2.17l-.55-.51L33.24,51l-.16-.13-.31-.24-.63-.5-.63-.44c-.82-.61-1.72-1.19-2.6-1.72s-1.78-1.07-2.65-1.56-1.72-1-2.52-1.47a23.17,23.17,0,0,1-2.19-1.49,12.52,12.52,0,0,1-1.66-1.51,7,7,0,0,1-1-1.4,4,4,0,0,1-.44-1c-.09-.23-.13-.35-.13-.35l.21.32a6,6,0,0,0,.63.85,7.52,7.52,0,0,0,1.17,1.14,14.1,14.1,0,0,0,1.76,1.21c.34.2.69.41,1.08.6s.76.41,1.18.61L27,45.17c.9.47,1.85.93,2.77,1.48.47.27.94.54,1.39.84s.93.59,1.38.92l.67.5.62.5.31.25.16.13.16.15.61.58A14.63,14.63,0,0,1,37,53c.28.43.52.88.76,1.31s.42.89.59,1.32a15.2,15.2,0,0,1,.75,2.5,14.68,14.68,0,0,1,.32,2.16,14.12,14.12,0,0,1,0,1.67A8.65,8.65,0,0,1,39.37,63.41Z"/><path class="cls-11" d="M5.24,23.77s.12.54.32,1.48c.11.47.23,1,.38,1.7l.26,1c0,.18.1.37.14.56s.12.38.17.58c.12.4.23.81.37,1.23s.29.85.45,1.3.35.88.53,1.34c.1.23.19.46.3.69l.33.69a14.09,14.09,0,0,0,.73,1.38l.4.69c.14.23.26.47.42.69.31.44.61.89.92,1.34s.69.86,1,1.29c.18.21.34.44.53.64l.56.6c.39.4.74.82,1.14,1.19.82.72,1.57,1.5,2.41,2.12l1.21,1c.39.31.81.58,1.2.86l1.15.81c.37.27.75.48,1.11.71.72.44,1.36.87,1.95,1.22l1.56.87,1.35.78-1.42-.66-1.62-.77c-.62-.31-1.3-.69-2-1.11-.37-.21-.77-.41-1.16-.66l-1.19-.77c-.4-.28-.83-.53-1.25-.84l-1.24-.94c-.43-.33-.86-.65-1.26-1l-1.24-1.11c-.41-.37-.78-.8-1.18-1.2L12,40.84c-.19-.21-.36-.44-.54-.65-.35-.45-.72-.88-1-1.33l-.93-1.39c-.31-.46-.56-.95-.83-1.42s-.49-1-.71-1.44c-.11-.23-.22-.47-.32-.7s-.19-.48-.28-.72c-.17-.47-.36-.92-.5-1.38s-.27-.9-.4-1.33-.2-.86-.3-1.26c-.21-.81-.31-1.56-.44-2.22s-.18-1.25-.26-1.72C5.3,24.32,5.24,23.77,5.24,23.77Z"/><path class="cls-11" d="M58.44,18.64s.17.31.42.86.6,1.35,1,2.33c.18.49.36,1,.53,1.6s.34,1.18.48,1.82c.08.31.15.64.21,1s.13.66.17,1,.1.68.13,1,.08.7.1,1.05c0,.7,0,1.38,0,2.06s0,1.36-.06,2-.09,1.28-.15,1.87-.13,1.15-.2,1.66a29.67,29.67,0,0,1-.66,3.39s.13-1.37.25-3.43c0-.51.05-1.07.08-1.66s0-1.21.05-1.85,0-1.3,0-2,0-1.37-.06-2c0-.33,0-.67-.08-1s-.07-.67-.12-1-.09-.66-.14-1-.11-.64-.17-1-.12-.62-.19-.92-.12-.6-.19-.88c-.14-.58-.27-1.12-.41-1.62C58.89,20,58.44,18.64,58.44,18.64Z"/><path class="cls-12" d="M54.85,20.61a18,18,0,0,1-2.06,5.09l.12-.3a13.36,13.36,0,0,0,1.16-4.72,6.1,6.1,0,0,0-.7-3.35,3.44,3.44,0,0,0-3.23-1.9,4,4,0,0,0-2.25.8,6.38,6.38,0,0,0-2,2.53c-.26.56-.45,1.16-.67,1.74,0,.11-.07.22-.12.34h0l-.61-.28a7.49,7.49,0,0,0-3.63-.82,3.42,3.42,0,0,0-3.21,2,3.16,3.16,0,0,0,.78,3.67A5.62,5.62,0,0,0,42.11,27l.47,0-.56.11a7.92,7.92,0,0,1-3.78-.1h0l-.4-.13-.31-.12a4.65,4.65,0,0,1-2.8-3.46C34,20.05,36.37,17.47,39.5,17a7.58,7.58,0,0,1,3.85.43c0-.17.09-.32.14-.47a6.39,6.39,0,0,1,6.9-4.4,5.29,5.29,0,0,1,3.26,1.58A5.15,5.15,0,0,1,55,16.79,9.46,9.46,0,0,1,54.85,20.61Z"/><path class="cls-13" d="M37.59,21.79a3.16,3.16,0,0,0,.78,3.67A5.62,5.62,0,0,0,42.11,27l.47,0-.56.11a11.71,11.71,0,0,1-3.78-.1h0a2.18,2.18,0,0,1-.4-.13c-3.27-1.47-3.16-3.91-2.73-5.36a4,4,0,0,1,1.66-2.26c3.3-2.1,8.15,1.47,8.27,1.57l-.61-.28a7.49,7.49,0,0,0-3.63-.82A3.42,3.42,0,0,0,37.59,21.79Z"/><path class="cls-14" d="M54.85,20.61a18,18,0,0,1-2.06,5.09l.12-.3a13.36,13.36,0,0,0,1.16-4.72,6.1,6.1,0,0,0-.7-3.35,3.44,3.44,0,0,0-3.23-1.9,4,4,0,0,0-2.25.8,6.38,6.38,0,0,0-2,2.53c-.26.56-.45,1.16-.67,1.74,0,.11-.07.22-.12.34h0s-.53-3.62,1-5.71a5.49,5.49,0,0,1,7.63-1A5.15,5.15,0,0,1,55,16.79,9.46,9.46,0,0,1,54.85,20.61Z"/><g class="cls-15"><path class="cls-16" d="M52.35,21.77c-.12-.75-.28-1.5-.42-2.24h0c-.07.67-.1,1.34-.21,2a7.32,7.32,0,0,1-3,4.86,8.52,8.52,0,0,1-6,1.43c-.83-.07-1.65-.24-2.48-.37a10.61,10.61,0,0,1,5.23,5,10.38,10.38,0,0,1,1.33,7,33.33,33.33,0,0,0,3.45-5h0l0-.06a21.61,21.61,0,0,0,1.53-3.54h0a19.49,19.49,0,0,0,.71-3.46A20.83,20.83,0,0,0,52.35,21.77Z"/><path class="cls-17" d="M46.41,25.93a2.19,2.19,0,1,0-2.27-2.18A2.23,2.23,0,0,0,46.41,25.93Z"/></g><g class="cls-18"><path class="cls-19" d="M75.63,66.7c0,2.22-16.43,4-36.69,4s-36.7-1.8-36.7-4,16.43-4,36.7-4S75.63,64.47,75.63,66.7Z"/><path class="cls-20" d="M75.18,66.7c0,2.19-16.23,4-36.24,4s-36.25-1.78-36.25-4,16.23-4,36.25-4S75.18,64.5,75.18,66.7Z"/><path class="cls-21" d="M74.73,66.7c0,2.16-16,3.91-35.79,3.91S3.14,68.86,3.14,66.7s16-3.92,35.8-3.92S74.73,64.53,74.73,66.7Z"/><path class="cls-22" d="M74.29,66.7c0,2.13-15.83,3.86-35.35,3.86S3.59,68.83,3.59,66.7s15.82-3.86,35.35-3.86S74.29,64.56,74.29,66.7Z"/><path class="cls-23" d="M73.84,66.7c0,2.1-15.63,3.8-34.9,3.8S4,68.8,4,66.7s15.63-3.81,34.91-3.81S73.84,64.59,73.84,66.7Z"/><path class="cls-24" d="M73.39,66.7c0,2.07-15.43,3.75-34.45,3.75S4.48,68.77,4.48,66.7s15.43-3.76,34.46-3.76S73.39,64.62,73.39,66.7Z"/><path class="cls-25" d="M72.94,66.7c0,2-15.22,3.69-34,3.69s-34-1.65-34-3.69,15.22-3.7,34-3.7S72.94,64.65,72.94,66.7Z"/><path class="cls-26" d="M72.5,66.7c0,2-15,3.64-33.56,3.64S5.38,68.71,5.38,66.7s15-3.65,33.56-3.65S72.5,64.68,72.5,66.7Z"/><path class="cls-27" d="M72.05,66.7c0,2-14.83,3.58-33.11,3.58S5.82,68.68,5.82,66.7s14.83-3.59,33.12-3.59S72.05,64.72,72.05,66.7Z"/><path class="cls-28" d="M71.6,66.7c0,2-14.62,3.53-32.66,3.53S6.27,68.65,6.27,66.7s14.63-3.54,32.67-3.54S71.6,64.75,71.6,66.7Z"/><path class="cls-29" d="M71.16,66.7c0,1.92-14.43,3.47-32.22,3.47S6.72,68.62,6.72,66.7s14.42-3.48,32.22-3.48S71.16,64.78,71.16,66.7Z"/><path class="cls-30" d="M70.71,66.7c0,1.89-14.23,3.42-31.77,3.42S7.16,68.59,7.16,66.7s14.23-3.43,31.78-3.43S70.71,64.81,70.71,66.7Z"/><path class="cls-31" d="M70.26,66.7c0,1.86-14,3.36-31.32,3.36S7.61,68.56,7.61,66.7s14-3.37,31.33-3.37S70.26,64.84,70.26,66.7Z"/><path class="cls-32" d="M69.81,66.7C69.81,68.53,56,70,38.94,70S8.06,68.53,8.06,66.7s13.82-3.32,30.88-3.32S69.81,64.87,69.81,66.7Z"/><path class="cls-33" d="M69.37,66.7c0,1.8-13.63,3.25-30.43,3.25S8.51,68.5,8.51,66.7s13.62-3.26,30.43-3.26S69.37,64.9,69.37,66.7Z"/><path class="cls-34" d="M68.92,66.7c0,1.77-13.43,3.2-30,3.2S9,68.47,9,66.7s13.43-3.21,30-3.21S68.92,64.93,68.92,66.7Z"/><path class="cls-35" d="M68.47,66.7c0,1.74-13.22,3.15-29.53,3.15S9.4,68.44,9.4,66.7s13.22-3.15,29.54-3.15S68.47,65,68.47,66.7Z"/><path class="cls-36" d="M68,66.7c0,1.71-13,3.09-29.08,3.09S9.85,68.41,9.85,66.7s13-3.1,29.09-3.1S68,65,68,66.7Z"/><path class="cls-37" d="M67.58,66.7c0,1.68-12.83,3-28.64,3s-28.64-1.36-28.64-3,12.82-3,28.64-3S67.58,65,67.58,66.7Z"/><path class="cls-38" d="M67.13,66.7c0,1.64-12.62,3-28.19,3s-28.2-1.34-28.2-3,12.63-3,28.2-3S67.13,65.05,67.13,66.7Z"/><path class="cls-39" d="M66.68,66.7c0,1.61-12.42,2.93-27.74,2.93S11.19,68.31,11.19,66.7s12.42-2.93,27.75-2.93S66.68,65.08,66.68,66.7Z"/><path class="cls-40" d="M66.24,66.7c0,1.58-12.23,2.87-27.3,2.87s-27.3-1.29-27.3-2.87,12.22-2.88,27.3-2.88S66.24,65.11,66.24,66.7Z"/><path class="cls-41" d="M65.79,66.7c0,1.55-12,2.82-26.85,2.82S12.08,68.25,12.08,66.7s12-2.82,26.86-2.82S65.79,65.14,65.79,66.7Z"/><path class="cls-42" d="M65.34,66.7c0,1.52-11.82,2.76-26.4,2.76S12.53,68.22,12.53,66.7s11.82-2.77,26.41-2.77S65.34,65.17,65.34,66.7Z"/><path class="cls-43" d="M64.89,66.7c0,1.49-11.62,2.71-25.95,2.71S13,68.19,13,66.7,24.6,64,38.94,64,64.89,65.2,64.89,66.7Z"/><path class="cls-44" d="M64.45,66.7c0,1.46-11.43,2.65-25.51,2.65S13.43,68.16,13.43,66.7,24.85,64,38.94,64,64.45,65.23,64.45,66.7Z"/><path class="cls-45" d="M64,66.7c0,1.43-11.22,2.6-25.06,2.6s-25.07-1.17-25.07-2.6,11.23-2.6,25.07-2.6S64,65.26,64,66.7Z"/><path class="cls-46" d="M63.55,66.7c0,1.4-11,2.54-24.61,2.54S14.32,68.1,14.32,66.7s11-2.55,24.62-2.55S63.55,65.29,63.55,66.7Z"/><path class="cls-47" d="M63.11,66.7c0,1.37-10.83,2.49-24.17,2.49S14.77,68.07,14.77,66.7s10.82-2.49,24.17-2.49S63.11,65.32,63.11,66.7Z"/><path class="cls-48" d="M62.66,66.7c0,1.34-10.62,2.43-23.72,2.43S15.22,68,15.22,66.7s10.62-2.44,23.72-2.44S62.66,65.35,62.66,66.7Z"/><path class="cls-49" d="M62.21,66.7c0,1.31-10.42,2.38-23.27,2.38S15.66,68,15.66,66.7s10.42-2.39,23.28-2.39S62.21,65.38,62.21,66.7Z"/><path class="cls-50" d="M61.76,66.7C61.76,68,51.54,69,38.94,69S16.11,68,16.11,66.7s10.22-2.33,22.83-2.33S61.76,65.41,61.76,66.7Z"/><path class="cls-51" d="M61.32,66.7C61.32,68,51.3,69,38.94,69S16.56,68,16.56,66.7s10-2.28,22.38-2.28S61.32,65.44,61.32,66.7Z"/><path class="cls-52" d="M60.87,66.7c0,1.22-9.82,2.21-21.93,2.21S17,67.92,17,66.7s9.82-2.22,21.94-2.22S60.87,65.47,60.87,66.7Z"/><path class="cls-53" d="M60.42,66.7c0,1.19-9.62,2.16-21.48,2.16s-21.49-1-21.49-2.16,9.62-2.17,21.49-2.17S60.42,65.5,60.42,66.7Z"/><path class="cls-54" d="M60,66.7c0,1.16-9.42,2.1-21,2.1s-21-.94-21-2.1,9.42-2.11,21-2.11S60,65.53,60,66.7Z"/><path class="cls-55" d="M59.53,66.7c0,1.13-9.22,2-20.59,2s-20.59-.92-20.59-2,9.22-2.06,20.59-2.06S59.53,65.56,59.53,66.7Z"/><path class="cls-56" d="M59.08,66.7c0,1.1-9,2-20.14,2s-20.15-.89-20.15-2,9-2,20.15-2S59.08,65.59,59.08,66.7Z"/><path class="cls-57" d="M58.63,66.7c0,1.07-8.82,1.94-19.69,1.94s-19.7-.87-19.7-1.94,8.82-2,19.7-2S58.63,65.62,58.63,66.7Z"/><path class="cls-58" d="M58.19,66.7c0,1-8.62,1.89-19.25,1.89s-19.25-.85-19.25-1.89,8.62-1.89,19.25-1.89S58.19,65.65,58.19,66.7Z"/><path class="cls-59" d="M57.74,66.7c0,1-8.42,1.83-18.8,1.83s-18.81-.82-18.81-1.83,8.42-1.84,18.81-1.84S57.74,65.68,57.74,66.7Z"/><path class="cls-60" d="M57.29,66.7c0,1-8.22,1.78-18.35,1.78s-18.36-.8-18.36-1.78,8.22-1.78,18.36-1.78S57.29,65.71,57.29,66.7Z"/><path class="cls-61" d="M56.84,66.7c0,1-8,1.72-17.9,1.72S21,67.65,21,66.7,29.05,65,38.94,65,56.84,65.74,56.84,66.7Z"/><path class="cls-62" d="M56.4,66.7c0,.92-7.82,1.67-17.46,1.67s-17.46-.75-17.46-1.67S29.29,65,38.94,65,56.4,65.77,56.4,66.7Z"/><path class="cls-63" d="M56,66.7c0,.89-7.62,1.61-17,1.61s-17-.72-17-1.61,7.62-1.62,17-1.62S56,65.8,56,66.7Z"/><path class="cls-64" d="M55.5,66.7c0,.86-7.42,1.56-16.56,1.56s-16.57-.7-16.57-1.56,7.42-1.56,16.57-1.56S55.5,65.83,55.5,66.7Z"/><path class="cls-65" d="M55.06,66.7c0,.83-7.22,1.5-16.12,1.5s-16.12-.67-16.12-1.5S30,65.19,38.94,65.19,55.06,65.87,55.06,66.7Z"/><path class="cls-66" d="M54.61,66.7c0,.8-7,1.45-15.67,1.45S23.27,67.5,23.27,66.7s7-1.45,15.67-1.45S54.61,65.9,54.61,66.7Z"/><path class="cls-67" d="M54.16,66.7c0,.77-6.82,1.39-15.22,1.39s-15.23-.62-15.23-1.39,6.82-1.4,15.23-1.4S54.16,65.93,54.16,66.7Z"/><path class="cls-68" d="M53.71,66.7c0,.74-6.61,1.34-14.77,1.34s-14.78-.6-14.78-1.34,6.62-1.34,14.78-1.34S53.71,66,53.71,66.7Z"/><path class="cls-69" d="M53.27,66.7c0,.71-6.42,1.28-14.33,1.28s-14.33-.57-14.33-1.28S31,65.41,38.94,65.41,53.27,66,53.27,66.7Z"/><path class="cls-70" d="M52.82,66.7c0,.68-6.22,1.23-13.88,1.23s-13.89-.55-13.89-1.23,6.22-1.23,13.89-1.23S52.82,66,52.82,66.7Z"/><path class="cls-71" d="M52.37,66.7c0,.65-6,1.17-13.43,1.17S25.5,67.35,25.5,66.7s6-1.18,13.44-1.18S52.37,66.05,52.37,66.7Z"/><path class="cls-72" d="M51.92,66.7c0,.62-5.81,1.12-13,1.12s-13-.5-13-1.12,5.81-1.12,13-1.12S51.92,66.08,51.92,66.7Z"/><path class="cls-73" d="M51.48,66.7c0,.59-5.62,1.06-12.54,1.06S26.4,67.29,26.4,66.7,32,65.63,38.94,65.63,51.48,66.11,51.48,66.7Z"/><path class="cls-74" d="M51,66.7c0,.56-5.42,1-12.09,1s-12.1-.45-12.1-1,5.42-1,12.1-1S51,66.14,51,66.7Z"/><path class="cls-75" d="M50.58,66.7c0,.53-5.21,1-11.64,1s-11.65-.42-11.65-1,5.22-1,11.65-1S50.58,66.17,50.58,66.7Z"/><path class="cls-76" d="M50.14,66.7c0,.5-5,.9-11.2.9s-11.2-.4-11.2-.9,5-.91,11.2-.91S50.14,66.2,50.14,66.7Z"/><path class="cls-77" d="M49.69,66.7c0,.46-4.82.84-10.75.84s-10.75-.38-10.75-.84,4.81-.85,10.75-.85S49.69,66.23,49.69,66.7Z"/><path class="cls-78" d="M49.24,66.7c0,.43-4.61.79-10.3.79s-10.31-.36-10.31-.79,4.62-.8,10.31-.8S49.24,66.26,49.24,66.7Z"/><path class="cls-79" d="M48.79,66.7c0,.4-4.41.73-9.85.73s-9.86-.33-9.86-.73S33.49,66,38.94,66,48.79,66.29,48.79,66.7Z"/><path class="cls-80" d="M48.35,66.7c0,.37-4.22.68-9.41.68s-9.41-.31-9.41-.68S33.74,66,38.94,66,48.35,66.32,48.35,66.7Z"/><path class="cls-81" d="M47.9,66.7c0,.34-4,.63-9,.63s-9-.29-9-.63,4-.63,9-.63S47.9,66.35,47.9,66.7Z"/><path class="cls-82" d="M47.45,66.7c0,.31-3.81.57-8.51.57s-8.52-.26-8.52-.57,3.81-.58,8.52-.58S47.45,66.38,47.45,66.7Z"/><path class="cls-83" d="M47,66.7c0,.28-3.61.52-8.06.52s-8.07-.24-8.07-.52,3.61-.52,8.07-.52S47,66.41,47,66.7Z"/><path class="cls-84" d="M46.56,66.7c0,.25-3.42.46-7.62.46s-7.62-.21-7.62-.46,3.41-.47,7.62-.47S46.56,66.44,46.56,66.7Z"/><path class="cls-85" d="M46.11,66.7c0,.22-3.21.41-7.17.41s-7.18-.19-7.18-.41,3.22-.41,7.18-.41S46.11,66.47,46.11,66.7Z"/></g></g></g></g></svg>